<?xml version="1.0" encoding="UTF-8" standalone="no"?>
<!-- Created with Inkscape (http://www.inkscape.org/) -->

<svg
   xmlns:dc="http://purl.org/dc/elements/1.1/"
   xmlns:cc="http://creativecommons.org/ns#"
   xmlns:rdf="http://www.w3.org/1999/02/22-rdf-syntax-ns#"
   xmlns:svg="http://www.w3.org/2000/svg"
   xmlns="http://www.w3.org/2000/svg"
   xmlns:sodipodi="http://sodipodi.sourceforge.net/DTD/sodipodi-0.dtd"
   xmlns:inkscape="http://www.inkscape.org/namespaces/inkscape"
   width="768mm"
   height="1366mm"
   viewBox="0 0 768 1366"
   version="1.1"
   id="svg8"
   inkscape:version="0.92.1 r15371"
   sodipodi:docname="bg-src.svg"
   inkscape:export-filename="D:\Web Design and Implementation\IGME-230\exercises\RandomPhrases\images\bg-phone.png"
   inkscape:export-xdpi="9.9200001"
   inkscape:export-ydpi="9.9200001">
  <defs
     id="defs2" />
  <sodipodi:namedview
     id="base"
     pagecolor="#ffffff"
     bordercolor="#666666"
     borderopacity="1.0"
     inkscape:pageopacity="0.0"
     inkscape:pageshadow="2"
     inkscape:zoom="0.12374369"
     inkscape:cx="-42.72122"
     inkscape:cy="2422.7195"
     inkscape:document-units="mm"
     inkscape:current-layer="layer1"
     showgrid="false"
     inkscape:window-width="1920"
     inkscape:window-height="1017"
     inkscape:window-x="1912"
     inkscape:window-y="-6"
     inkscape:window-maximized="1" />
  <metadata
     id="metadata5">
    <rdf:RDF>
      <cc:Work
         rdf:about="">
        <dc:format>image/svg+xml</dc:format>
        <dc:type
           rdf:resource="http://purl.org/dc/dcmitype/StillImage" />
        <dc:title></dc:title>
      </cc:Work>
    </rdf:RDF>
  </metadata>
  <g
     inkscape:label="Layer 1"
     inkscape:groupmode="layer"
     id="layer1"
     transform="translate(0,1069)">
    <circle
       style="opacity:1;fill:#ff8c00;fill-opacity:1;stroke:none;stroke-width:12.30900002;stroke-miterlimit:4;stroke-dasharray:none;stroke-dashoffset:0;stroke-opacity:0.97652582"
       id="path4485"
       cx="179.91666"
       cy="168.4881"
       r="65.011902" />
    <circle
       style="opacity:1;fill:#78c6ff;fill-opacity:1;stroke:none;stroke-width:12.30900002;stroke-miterlimit:4;stroke-dasharray:none;stroke-dashoffset:0;stroke-opacity:0.97652582"
       id="path4485-9"
       cx="664.07904"
       cy="-815.47198"
       r="65.011902" />
    <path
       style="opacity:1;fill:#d10000;fill-opacity:1;stroke:none;stroke-width:12.30900002;stroke-miterlimit:4;stroke-dasharray:none;stroke-dashoffset:0;stroke-opacity:0.97652582"
       id="path4532"
       d="m 41.861488,-0.07916406 c 0.454964,5.26462616 0.900848,10.52665906 1.11678,15.80716106 0.198096,4.715033 0.224602,9.434433 0.218191,14.152826 -0.16043,4.384384 0.135742,8.727229 0.632346,13.078169 0.485553,4.273127 0.716598,8.564616 0.835721,12.86129 0.05078,3.970708 0.09572,7.94168 0.0801,11.912732 0.0081,3.759915 -0.01048,7.519776 -0.0056,11.27969 0.08449,3.292819 -0.136618,6.599555 0.142541,9.883749 0.56904,3.403229 0.942936,6.83088 1.1796,10.271839 0.06181,0.619919 0.936535,5.283198 1.281078,5.331218 0.133805,0.0185 0.141304,-0.23032 0.211958,-0.34546 -0.114327,-8.28371 0.334346,-0.62635 -18.394878,9.3836 -0.417322,0.22305 0.578008,-0.75398 0.805537,-1.16887 0.277439,-0.50589 0.494239,-1.04386 0.702934,-1.58179 0.680517,-1.75403 0.880864,-2.67962 1.395503,-4.54189 1.647886,-6.922688 3.505628,-13.792489 5.251249,-20.691605 1.573122,-6.376008 2.851996,-12.812183 4.049262,-19.267355 1.219147,-6.600904 2.578431,-13.168735 4.084315,-19.709473 1.794687,-8.934106 2.780138,-18.017755 3.860668,-27.062298 0.675375,-7.367164 1.316876,-14.73618 1.953508,-22.1076568 0.592019,-7.0047907 0.578456,-14.0298752 1.197801,-21.0313322 0.349268,-4.80867 0.928685,-9.581885 1.624338,-14.350523 0.427468,-3.996082 1.434594,-7.890537 2.716911,-11.68916 3.448944,-8.840152 5.014944,-6.070891 21.024235,-13.700839 0.472904,-0.225372 2.412201,3.361637 2.587162,3.685963 1.694204,4.052835 2.681224,8.376603 3.65297,12.651132 1.373423,5.624962 2.341399,11.331866 3.743624,16.950055 2.00955,6.795267 3.900707,13.625618 5.746853,20.4666843 2.096233,7.2801691 4.272569,14.534065 6.155375,21.8735797 1.98927,7.45281 4.66362,14.688953 7.33458,21.91647 2.97933,8.120221 6.30865,16.094101 9.79507,24.0071 3.08709,6.819292 6.73475,13.361749 10.432,19.863223 2.24697,4.217459 5.36522,7.820343 8.58288,11.312208 2.8866,2.566537 5.83833,5.162682 9.43978,6.650064 0.44821,0.239871 0.89642,0.479742 1.34463,0.719613 0,0 -18.7646,12.29183 -18.7646,12.29183 v 0 c -0.42142,-0.2173 -0.84284,-0.43458 -1.26426,-0.65186 -3.65492,-1.90775 -6.84113,-4.60875 -9.80243,-7.4545 -3.30524,-3.642227 -6.55946,-7.374784 -8.79446,-11.797479 C 104.44882,82.462527 100.83996,75.81323 97.821175,68.885301 94.369495,60.911791 90.544636,53.103249 87.807545,44.838804 85.210096,37.516487 82.240264,30.304765 80.278162,22.775068 78.468764,15.433648 76.353293,8.171576 74.212264,0.92151655 72.223116,-5.8930652 70.448936,-12.762866 68.39138,-19.556704 c -1.501092,-5.608241 -2.611064,-11.287204 -3.934364,-16.935609 -0.878065,-4.073075 -1.904344,-8.146838 -3.513902,-11.99761 -0.191506,-0.338138 -0.354878,-0.693843 -0.574519,-1.014413 -0.164254,-0.239738 -0.322041,-0.509349 -0.571548,-0.658362 -0.0799,-0.04771 -0.166648,0.312446 -0.08628,0.265536 34.108837,-19.910875 21.166942,-16.211021 17.357929,-9.204563 -1.46494,3.614525 -2.454093,7.426325 -2.956613,11.293263 -0.72735,4.759087 -1.388568,9.509627 -1.796619,14.309513 -0.749898,7.001722 -0.886291,14.031436 -1.309619,21.058187 -0.634714,7.4163768 -1.253299,14.83614 -2.030555,22.2384143 -0.613016,4.7667597 -1.363745,9.5201317 -1.939028,14.2909657 -0.127574,1.057989 -0.856041,8.522361 -1.042752,9.839325 -0.144807,1.021345 -0.388411,2.026259 -0.582618,3.039375 -1.498388,6.517931 -3.025989,13.023241 -4.154564,19.61933 -1.10808,6.534573 -2.475503,13.015595 -4.050834,19.453674 -1.781361,6.841622 -3.558789,13.682081 -5.090298,20.583155 -2.044867,9.671133 -7.831537,26.517153 -23.379414,19.995673 -2.003491,-1.8697 -2.027359,-4.58179 -2.565778,-7.16185 -0.182922,-3.40468 -0.485841,-6.80384 -1.142387,-10.154547 -0.477859,-3.353699 -0.127155,-6.757723 -0.216243,-10.137484 0.0081,-3.760893 -0.0046,-7.521733 0.01104,-11.2826 -0.01176,-3.957743 0.04321,-7.915936 -0.03913,-11.873283 C 24.701062,61.76965 24.541792,57.527294 24.07092,53.310207 23.566282,48.87534 23.067061,44.474605 23.347424,39.998331 23.326231,35.29904 23.332086,30.598903 23.205339,25.900908 23.009265,20.706529 22.746482,15.503021 22.000206,10.353754 c 0,0 19.861277,-10.43291806 19.861277,-10.43291806 z"
       inkscape:connector-curvature="0" />
    <path
       style="opacity:1;fill:#d10000;fill-opacity:1;stroke:none;stroke-width:12.30900002;stroke-miterlimit:4;stroke-dasharray:none;stroke-dashoffset:0;stroke-opacity:0.97652582"
       id="path4534"
       d="m 49.472892,61.490118 c 4.190484,-1.43002 8.35171,-2.983072 12.604321,-4.224444 3.348672,-1.186682 6.934626,-1.609275 10.299078,-2.680626 2.919196,-0.985202 5.975641,-1.294394 9.031981,-1.465553 3.161546,0.03686 6.237954,-0.14822 9.353997,-0.642276 3.350887,-0.554487 6.739649,-0.773298 10.129681,-0.891249 3.07103,-0.0799 6.14344,-0.07078 9.21523,-0.06861 0,0 -18.142195,13.182098 -18.142195,13.182098 v 0 c -3.049325,0.0042 -6.100029,0.0056 -9.146995,0.141261 -3.341626,0.181795 -6.669773,0.512127 -9.974993,1.04685 -3.150973,0.399203 -6.313101,0.332687 -9.477938,0.55843 -2.978954,0.303318 -5.89671,0.8872 -8.761047,1.772681 -3.442248,0.748401 -6.812367,1.73236 -10.196375,2.708064 -4.257651,1.377579 -8.48065,2.860966 -12.729586,4.264527 0,0 17.794841,-13.701156 17.794841,-13.701156 z"
       inkscape:connector-curvature="0" />
    <path
       style="opacity:1;fill:#2450e5;fill-opacity:1;stroke:none;stroke-width:12.30900002;stroke-miterlimit:4;stroke-dasharray:none;stroke-dashoffset:0;stroke-opacity:0.97652582"
       id="path4536"
       d="m 585.1029,-982.6454 c 1.0166,4.6258 1.8266,9.28794 2.3546,13.99416 0.5923,3.38414 1.273,6.74271 1.6389,10.16157 0.1163,3.45461 0.5426,6.87226 0.8835,10.30872 0.4623,4.4267 0.517,8.87763 1.2115,13.27664 0.7642,3.62624 0.7603,7.34676 1.2349,11.00535 0.7333,3.41115 0.91,6.90315 1.4344,10.34272 0.7462,3.09004 0.991,6.26233 1.5135,9.38743 0.6748,3.41882 1.0116,6.88291 1.7387,10.29058 0.4878,3.32687 1.0643,6.60427 1.8474,9.87317 0,0 -19.7525,10.64158 -19.7525,10.64158 v 0 c -0.7481,-3.29484 -1.3971,-6.57204 -1.8296,-9.92627 -0.7443,-3.42599 -1.1045,-6.89157 -1.7865,-10.33042 -0.6472,-3.11703 -0.6968,-6.33956 -1.5105,-9.43553 -0.6376,-3.44185 -0.6438,-6.98013 -1.4493,-10.40325 -0.5571,-3.64004 -0.4612,-7.35778 -1.204,-10.98059 -0.7089,-4.44909 -0.7603,-8.92714 -1.1879,-13.40936 -0.4159,-3.42686 -1.0544,-6.80422 -1.0195,-10.27087 -0.2954,-3.43359 -0.9017,-6.81332 -1.5574,-10.19486 -0.4073,-4.60471 -1.0459,-9.19947 -2.2893,-13.66167 0,0 19.7291,-10.6691 19.7291,-10.6691 z"
       inkscape:connector-curvature="0" />
    <path
       style="opacity:1;fill:#2450e5;fill-opacity:1;stroke:none;stroke-width:12.30900002;stroke-miterlimit:4;stroke-dasharray:none;stroke-dashoffset:0;stroke-opacity:0.97652582"
       id="path4538"
       d="m 530.4466,-978.36076 c 2.1484,-4.36699 4.6755,-8.53425 7.1846,-12.70022 2.2632,-3.61754 4.7247,-7.09467 7.4523,-10.37512 2.7273,-3.1639 5.6806,-6.1221 8.6228,-9.084 2.6993,-2.4961 5.4306,-4.9634 8.3366,-7.2181 8.6279,-6.8471 18.8981,-11.7066 28.3302,-17.0925 2.8533,-1.2416 5.6329,-2.6156 8.553,-3.7187 2.7689,-0.4776 5.1489,-2.0966 7.9875,-1.9916 2.925,0.1953 5.8835,0.8556 8.5833,2.0066 2.7999,1.0427 5.1576,2.9286 7.6082,4.5829 2.5595,2.0599 4.8153,4.4421 6.8345,7.0286 2.2461,2.9516 4.5692,5.8323 6.5526,8.9714 2.0881,3.1492 3.4844,6.6472 4.8377,10.1534 1.3294,3.6068 1.9457,7.3932 2.2973,11.20331 0.4545,3.60204 -0.046,7.08997 -1.1456,10.52131 -1.308,3.49078 -2.8937,6.88193 -4.9876,9.9698 -2.1923,2.8018 -4.769,5.22768 -7.4527,7.54574 -2.7555,2.43149 -5.758,4.54346 -8.6036,6.8646 -2.8869,1.94154 -5.7806,3.88009 -8.683,5.80305 -3.1446,1.90355 -6.2395,3.86573 -9.2751,5.93932 -7.3302,5.5524 -15.5331,9.15102 -23.5332,14.08381 -5.8448,3.60386 11.8856,-6.87995 17.8552,-10.27323 0.8764,-0.49823 -1.6682,1.13328 -2.4862,1.72259 -0.5589,-0.42269 -0.8767,1.07821 -1.4302,0.94009 -0.3019,-0.0753 -0.6218,-1.78953 -0.5979,-1.88392 0.2183,-0.8615 1.6758,-0.63005 2.5544,-0.76375 4.6875,-1.07397 9.2266,-2.68062 13.9562,-3.5732 4.5311,-1.3115 9.1688,-2.16858 13.825,-2.88693 5.0436,-0.88418 10.1724,-0.68943 15.2489,-1.17508 4.6157,-0.53048 9.2366,-0.99379 13.8773,-1.22795 4.3161,0.38958 8.5921,0.90243 12.8428,1.73401 4.0704,1.16948 5.7682,3.15773 5.8306,7.36121 -0.623,3.84539 -2.4521,7.34008 -4.1849,10.78328 -2.1459,4.73907 -4.8728,9.08912 -8.0464,13.19673 -2.897,3.71055 -6.1954,7.05705 -9.6128,10.28156 -2.6244,2.23298 -5.3841,4.31323 -8.1736,6.33663 -2.6513,1.73526 -5.3306,3.42542 -7.9998,5.1336 -7.852,10.55195 -15.1623,8.71867 -23.3714,12.85752 -1.2801,0.64537 -2.3485,1.37253 -3.7086,1.88791 -2.9591,1.30622 -5.667,3.09217 -8.6566,4.31543 -2.175,1.53238 -4.7368,2.24841 -6.9403,3.7001 -2.5513,1.48266 -5.4543,2.07388 -8.1319,3.21389 -3.0935,0.81441 -6.1426,1.78349 -9.2511,2.56965 -1.8849,0.59969 -3.9139,0.34945 -5.8291,0.67225 -0.8294,0.13979 -1.6123,0.47999 -2.4229,0.70451 -2.6666,0.65804 -5.4212,0.75974 -8.1534,0.84591 -0.4915,0.009 -0.983,0.0184 -1.4744,0.0276 0,0 18.1088,-13.2414 18.1088,-13.2414 v 0 c 0.4848,-0.0206 0.9696,-0.0412 1.4543,-0.0618 2.6737,-0.17384 5.3343,-0.47645 7.9228,-1.20312 2.7115,-0.56258 5.5278,-0.54136 8.1832,-1.41208 3.0396,-0.90389 6.1554,-1.54239 9.1072,-2.7193 2.7583,-0.91035 5.4396,-2.04881 7.9576,-3.50575 2.3737,-1.11696 4.6754,-2.37189 7.0245,-3.53811 2.8799,-1.47758 5.7378,-3.00226 8.7016,-4.31062 7.7387,-3.95512 22.5265,-10.65351 -11.4574,7.24386 2.8127,-1.48314 5.3268,-3.45168 8.0878,-5.02094 2.9345,-1.79582 5.5043,-4.07824 8.2924,-6.06834 3.6447,-2.96409 6.8783,-6.40525 9.9234,-9.97848 3.2212,-3.92974 6.0859,-8.03788 8.1509,-12.70609 1.5377,-3.29615 3.3379,-6.47617 4.4501,-9.95631 0.6226,-3.31633 -1.0995,-3.88953 -4.0884,-4.62544 -4.1371,-0.7603 -8.3521,-1.26108 -12.561,-1.27057 -4.5799,0.26877 -9.142,0.73617 -13.7076,1.17997 -5.0606,0.35334 -10.1516,0.42849 -15.16,1.3309 -4.649,0.80728 -9.2341,1.89083 -13.8169,3.00913 -4.7033,1.10586 -9.3069,2.59901 -14.0401,3.58864 -0.2994,0.0701 -2.4759,0.73392 -3.0697,0.41444 -2.0704,-1.114 -2.2435,-2.7795 -0.4927,-4.01031 0.8561,-0.54626 1.5985,-1.26234 2.4708,-1.78229 17.0205,-10.1453 35.313,-20.41965 2.8054,-1.64186 -1.0446,0.60339 4.2056,-2.5715 2.9481,-2.09886 2.9914,-2.14083 5.9927,-4.26356 9.2565,-5.97823 2.8701,-1.95068 5.6758,-4.01143 8.7333,-5.6651 2.9692,-2.15952 5.8,-4.53459 8.6566,-6.83086 2.779,-2.09345 5.2634,-4.50553 7.6103,-7.06139 2.4389,-2.68515 3.8843,-6.03821 5.2915,-9.34862 1.3212,-3.07771 1.8958,-6.28141 1.5465,-9.63249 -0.2449,-3.61371 -0.7004,-7.22523 -1.9663,-10.64411 -1.314,-3.36802 -2.5865,-6.76282 -4.6352,-9.77592 -1.9293,-3.0807 -4.2281,-5.8826 -6.4397,-8.7613 -1.9147,-2.3979 -4.068,-4.5879 -6.5289,-6.4313 -2.2895,-1.616 -4.6216,-3.2206 -7.3054,-4.1147 -2.5942,-0.8032 -5.2694,-1.4955 -8.0067,-1.1578 -2.5586,0.6997 -5.0608,1.6402 -7.5742,2.4804 -2.8142,1.2254 -5.615,2.4705 -8.3621,3.8432 33.3008,-19.3184 17.002,-10.4282 9.87,-5.2723 -2.7719,2.4064 -5.7479,4.5629 -8.4772,7.0351 -2.9315,2.9334 -5.875,5.8583 -8.6706,8.9229 -2.8091,3.1763 -5.3105,6.5625 -7.6921,10.0689 -2.4344,4.08131 -4.9349,8.12184 -7.1225,12.34105 0,0 -20.3976,9.3733 -20.3976,9.3733 z"
       inkscape:connector-curvature="0" />
    <path
       style="fill:none;fill-opacity:1;stroke:#ff5c09;stroke-width:3.56500006;stroke-linecap:butt;stroke-linejoin:round;stroke-miterlimit:4;stroke-dasharray:3.56500012, 3.56500012;stroke-dashoffset:0;stroke-opacity:1"
       d="m 175.38095,176.04762 c 0,0 129.87949,-526.34247 157.09377,-538.43771 27.2143,-12.09524 67.50336,-107.6339 108.31991,-120.38907 72.57144,-22.67856 123.74286,-203.21385 149.44523,-204.72575 25.70239,-1.51189 77.22991,-123.6907 77.22991,-123.6907"
       id="path4542"
       inkscape:connector-curvature="0"
       sodipodi:nodetypes="csssc" />
  </g>
</svg>
